<svg width="25" height="17" viewBox="0 0 25 17" fill="none" xmlns="http://www.w3.org/2000/svg">
<path d="M25 12.4729C25 14.7691 23.7276 16.6305 21.2277 16.6305H4.62949C2.12958 16.6305 0.857178 14.7691 0.857178 12.4729V4.15764C0.857178 1.86149 2.12958 0 4.62949 0H21.2277C23.7276 0 25 1.86149 25 4.15764V12.4729Z" fill="#128807"/>
<path d="M22.4121 8.61366L12.9851 15.2508L3.55768 8.61366L12.9851 1.97656L22.4121 8.61366Z" fill="#F9CB38"/>
<path fill-rule="evenodd" clip-rule="evenodd" d="M16.7047 9.7694C16.2754 11.231 14.9321 12.3437 13.4111 12.4949C11.379 12.6986 9.60107 11.4045 9.16876 9.40391C9.04085 8.816 9.05716 8.20578 9.21629 7.62557C9.27552 7.56132 9.35738 7.54582 9.43886 7.53448C10.0332 7.4518 10.6341 7.4256 11.2333 7.45624C11.8728 7.49253 12.5069 7.58135 13.1233 7.75597C13.7559 7.93551 14.3685 8.16984 14.9468 8.48129C15.382 8.71296 15.7977 8.97967 16.1898 9.2788C16.3226 9.38198 16.458 9.48328 16.5855 9.59327C16.6425 9.6424 16.6874 9.69532 16.7047 9.7694Z" fill="#002776"/>
<path fill-rule="evenodd" clip-rule="evenodd" d="M9.42944 7.03419C9.91645 5.94375 10.7377 5.21768 11.8728 4.87675C14.1588 4.18999 16.504 5.70374 16.8439 8.06453C16.8967 8.42926 16.899 8.79514 16.8432 9.16063C16.7855 9.18217 16.7425 9.15156 16.7028 9.11867C16.2886 8.77946 15.8465 8.47576 15.3814 8.2108C15.0233 8.00716 14.6511 7.82931 14.2678 7.67862C14.1999 7.65179 14.1147 7.6378 14.0913 7.54671C14.1158 7.50287 14.1467 7.46469 14.1837 7.42916C14.1969 7.41556 14.2161 7.40233 14.1984 7.37965C14.1924 7.37247 14.1799 7.37247 14.1694 7.3736C14.1411 7.37663 14.1448 7.39628 14.146 7.41707C14.1482 7.48472 14.109 7.52819 14.0573 7.56296C13.9657 7.58375 13.8778 7.55616 13.8034 7.51647C13.5907 7.4046 13.3553 7.36642 13.1301 7.30406C12.7789 7.20843 12.4182 7.15438 12.0584 7.09806C11.7712 7.05211 11.482 7.01907 11.1919 6.99904C10.9278 6.98052 10.6588 6.98316 10.3929 7.00131C10.1028 7.02172 9.81196 7.04213 9.52337 7.0769C9.50528 7.07954 9.48681 7.07692 9.47015 7.06935C9.4535 7.06178 9.43937 7.04958 9.42944 7.03419Z" fill="#002776"/>
<path fill-rule="evenodd" clip-rule="evenodd" d="M14.0942 7.52354C14.0927 7.56965 14.1338 7.5636 14.1587 7.57343C15.1328 7.95312 16.0387 8.4893 16.8408 9.16089C16.8177 9.36825 16.7719 9.57244 16.7042 9.76979C16.2323 9.37746 15.7491 9.00365 15.2146 8.69826C13.5249 7.73406 11.7157 7.35194 9.78167 7.5568C9.59305 7.57607 9.40444 7.60177 9.21582 7.62483C9.26448 7.42035 9.32635 7.21965 9.42782 7.03369C10.8398 6.84282 12.2273 6.95129 13.5887 7.37348C13.7577 7.42602 13.9188 7.51068 14.0991 7.52656L14.0942 7.5224" fill="#FEFEFE"/>
<path fill-rule="evenodd" clip-rule="evenodd" d="M15.8521 9.95949C15.7386 9.94739 15.8619 10.0869 15.7472 10.0838C15.6473 10.0823 15.642 10.0022 15.593 9.9576C15.6307 9.91829 15.6974 9.91035 15.7186 9.84912C15.7329 9.91375 15.7936 9.92736 15.8521 9.95949Z" fill="#D9DFEA"/>
<path fill-rule="evenodd" clip-rule="evenodd" d="M11.5682 10.6585C11.4615 10.671 11.5509 10.7874 11.4615 10.7893C11.3713 10.7912 11.3249 10.7243 11.3068 10.6551C11.3004 10.6354 11.3871 10.5916 11.4298 10.5591C11.4351 10.6275 11.506 10.6245 11.5682 10.6585Z" fill="#E9ECF3"/>
<path fill-rule="evenodd" clip-rule="evenodd" d="M12.9813 10.4482C12.8331 10.5442 12.9527 10.3273 12.8655 10.3485C12.8938 10.3031 12.9738 10.3137 12.9791 10.2441C13.0168 10.2834 13.0489 10.3288 13.1089 10.3371C13.0232 10.3254 13.1164 10.5159 12.9813 10.4482Z" fill="#EDEFF5"/>
<path fill-rule="evenodd" clip-rule="evenodd" d="M9.91828 7.9013C9.88282 7.96896 9.85603 8.04455 9.74852 7.9992C9.69345 7.97614 9.75229 7.90055 9.68628 7.89337L9.8085 7.78564C9.8168 7.80341 9.82661 7.82042 9.83491 7.83818C9.84472 7.88316 9.93412 7.82344 9.91828 7.9013Z" fill="#F0F2F6"/>
<path fill-rule="evenodd" clip-rule="evenodd" d="M10.2605 9.54356C10.2043 9.56132 10.2447 9.70949 10.124 9.64485C10.1119 9.63881 10.0591 9.66791 10.0689 9.6509C10.1006 9.58891 10.0296 9.55868 10.0406 9.50916C10.1066 9.53789 10.1028 9.41694 10.1704 9.44944C10.1753 9.45322 10.1753 9.46834 10.1787 9.47817C10.1858 9.52504 10.2771 9.46645 10.2605 9.54356Z" fill="#ECEFF4"/>
<path fill-rule="evenodd" clip-rule="evenodd" d="M9.66704 9.98122C9.55123 10.0217 9.63762 9.88144 9.57123 9.88257C9.60216 9.85649 9.63687 9.80773 9.6678 9.80962C9.70477 9.81151 9.73872 9.85725 9.77267 9.88333C9.72212 9.90034 9.77531 10.0375 9.66704 9.98122Z" fill="#D9DFEA"/>
<path fill-rule="evenodd" clip-rule="evenodd" d="M14.1433 11.3188C14.0207 11.3747 14.1399 11.2096 14.058 11.2311C14.0497 11.168 14.152 11.2062 14.1391 11.1396L14.2497 11.2285C14.2048 11.2489 14.2497 11.3774 14.1433 11.3188Z" fill="#D8DEEA"/>
<path fill-rule="evenodd" clip-rule="evenodd" d="M14.928 11.2278C14.8265 11.2702 14.8887 11.1334 14.834 11.1197C14.871 11.0959 14.9099 11.0706 14.9461 11.046C14.9491 11.102 15.0257 11.0816 15.034 11.1311C14.977 11.1345 15.0362 11.2577 14.928 11.2278ZM15.6334 10.7191C15.518 10.7777 15.6032 10.6239 15.5372 10.6303C15.5504 10.5811 15.6262 10.5997 15.6308 10.543L15.739 10.6242C15.673 10.6223 15.7541 10.7845 15.6334 10.7191Z" fill="#DCE1EC"/>
<path fill-rule="evenodd" clip-rule="evenodd" d="M10.9606 10.0135C10.8399 10.0819 10.9187 9.92885 10.8629 9.92583C10.8686 9.86951 10.9538 9.8937 10.9576 9.83398C10.9689 9.88917 11.0421 9.87329 11.0579 9.92281C10.9859 9.91222 11.0885 10.0857 10.9606 10.0135Z" fill="#D4DAE7"/>
<path fill-rule="evenodd" clip-rule="evenodd" d="M11.4498 8.865C11.3815 8.86047 11.4691 8.75275 11.3853 8.75955C11.3996 8.69907 11.4642 8.71155 11.4996 8.68018C11.5177 8.71835 11.569 8.72704 11.5717 8.78185C11.5777 8.88201 11.4891 8.83023 11.4498 8.865Z" fill="#F2F4F7"/>
<path fill-rule="evenodd" clip-rule="evenodd" d="M13.4379 9.6633C13.3334 9.72339 13.3884 9.58922 13.3401 9.57447C13.373 9.54726 13.4047 9.51967 13.4379 9.4917C13.4401 9.54764 13.5469 9.53517 13.5167 9.57825C13.4986 9.60396 13.5571 9.7215 13.4379 9.6633Z" fill="#E6E9F1"/>
<path fill-rule="evenodd" clip-rule="evenodd" d="M12.9702 9.32646C12.851 9.33855 12.9739 9.23007 12.8966 9.23272C12.9268 9.20437 12.9558 9.15599 12.9898 9.15297C13.0192 9.14994 13.0532 9.19795 13.0852 9.2244C13.0433 9.26485 13.0498 9.36917 12.9702 9.32646Z" fill="#EAEDF3"/>
<path fill-rule="evenodd" clip-rule="evenodd" d="M15.8643 10.209C15.8888 10.274 15.9371 10.2827 15.9748 10.3057C15.9363 10.3492 15.9212 10.4157 15.8413 10.4157C15.7594 10.4165 15.8149 10.3541 15.7964 10.325C15.7507 10.2525 15.9194 10.3137 15.8643 10.209Z" fill="#E4E8F0"/>
<path fill-rule="evenodd" clip-rule="evenodd" d="M15.0102 11.5256C14.9815 11.5683 15.0011 11.6091 14.9249 11.6106C14.8378 11.6122 14.8657 11.5483 14.8619 11.5286C14.8548 11.4961 14.9046 11.4651 14.9332 11.4716C14.9581 11.4761 15.0064 11.4901 15.0102 11.5256Z" fill="#CED5E4"/>
<path fill-rule="evenodd" clip-rule="evenodd" d="M10.9346 10.3144C10.8724 10.3216 10.924 10.4032 10.8452 10.4006C10.7731 10.3983 10.7837 10.3496 10.7758 10.3201C10.7633 10.2789 10.8241 10.28 10.8376 10.249C10.8663 10.2691 10.8954 10.2891 10.9346 10.3144Z" fill="#DAE0EB"/>
<path fill-rule="evenodd" clip-rule="evenodd" d="M14.8411 10.7464C14.8678 10.7264 14.8946 10.7079 14.9229 10.689C14.9252 10.7309 15.0153 10.7067 14.9852 10.7604C14.9727 10.7819 15.0033 10.8409 14.9252 10.8356C14.855 10.8307 14.8716 10.7816 14.8411 10.7464Z" fill="#D8DEE9"/>
<path fill-rule="evenodd" clip-rule="evenodd" d="M14.5545 10.8757C14.5409 10.9501 14.4986 10.9622 14.4522 10.9709C14.3734 10.9841 14.4326 10.9248 14.4198 10.9021C14.3866 10.8454 14.4703 10.8564 14.4802 10.8193C14.502 10.8481 14.5522 10.8473 14.5545 10.8757Z" fill="#CBD2E3"/>
<path fill-rule="evenodd" clip-rule="evenodd" d="M14.113 8.42467C14.0866 8.43714 14.1217 8.50026 14.0651 8.48212C14.0221 8.46738 13.9693 8.44697 13.9731 8.39405C13.9746 8.37364 14.0259 8.35663 14.0546 8.33887C14.0595 8.37704 14.141 8.36457 14.113 8.42467Z" fill="#D1D8E6"/>
<path fill-rule="evenodd" clip-rule="evenodd" d="M16.2479 10.0823C16.1769 10.1102 16.209 10.0517 16.1966 10.0347C16.149 9.97002 16.243 9.97947 16.2479 9.94092C16.2769 9.96019 16.3335 9.98212 16.3312 9.99875C16.3296 10.0204 16.3203 10.0407 16.305 10.056C16.2897 10.0713 16.2694 10.0806 16.2479 10.0823Z" fill="#DADFEA"/>
<path fill-rule="evenodd" clip-rule="evenodd" d="M12.6003 9.50586C12.6003 9.5497 12.6886 9.53232 12.6588 9.58712C12.6467 9.60942 12.6724 9.66914 12.6113 9.65667C12.5649 9.64722 12.5181 9.62001 12.5166 9.57389C12.5166 9.55235 12.5702 9.52929 12.6003 9.50586Z" fill="#CAD2E2"/>
<path fill-rule="evenodd" clip-rule="evenodd" d="M13.8075 10.873C13.7728 10.8568 13.7713 10.811 13.7736 10.7891C13.7773 10.76 13.8162 10.7207 13.8494 10.7366C13.8698 10.7464 13.9275 10.7407 13.9135 10.7936C13.9007 10.8443 13.8502 10.8515 13.8075 10.873Z" fill="#D0D7E5"/>
<path fill-rule="evenodd" clip-rule="evenodd" d="M15.2673 10.8068C15.2688 10.8065 15.2952 10.7698 15.3251 10.7691C15.3466 10.7683 15.3684 10.8129 15.3914 10.8378C15.3605 10.8465 15.3869 10.9036 15.3258 10.9029C15.2707 10.9017 15.2707 10.8768 15.2673 10.8068Z" fill="#EFF2F6"/>
<path fill-rule="evenodd" clip-rule="evenodd" d="M12.8403 9.84961C12.8301 9.89043 12.8301 9.91576 12.7939 9.915C12.7569 9.91425 12.7388 9.90064 12.7396 9.86284C12.7396 9.83298 12.7592 9.81219 12.7815 9.81408C12.8071 9.81597 12.8437 9.82316 12.8403 9.84961Z" fill="#CCD4E3"/>
<path fill-rule="evenodd" clip-rule="evenodd" d="M10.5271 9.26172C10.5452 9.28137 10.566 9.29687 10.5739 9.3169C10.5807 9.33353 10.5701 9.35886 10.5467 9.3615C10.5207 9.36377 10.4928 9.36301 10.4845 9.33051C10.4769 9.29876 10.5045 9.28742 10.5271 9.26172Z" fill="#E0E5EE"/>
<path fill-rule="evenodd" clip-rule="evenodd" d="M10.2604 9.54331C10.2503 9.49984 10.1831 9.52743 10.1786 9.47754C10.1929 9.51534 10.305 9.43105 10.2604 9.54331Z" fill="#7085B1"/>
<path fill-rule="evenodd" clip-rule="evenodd" d="M9.91827 7.9015C9.90997 7.85501 9.83867 7.89167 9.8349 7.83838C9.85489 7.87013 9.95599 7.79491 9.91827 7.9015Z" fill="#5C75A7"/>
<path fill-rule="evenodd" clip-rule="evenodd" d="M14.1019 7.52766C14.1091 7.49894 14.1321 7.45207 14.1231 7.44338C14.0001 7.33377 14.1642 7.31524 14.1887 7.29294C14.2336 7.24948 14.2264 7.43279 14.3449 7.31676C14.2811 7.45849 14.1959 7.49931 14.0978 7.5235L14.1019 7.52766Z" fill="#E7EAF2"/>
<path fill-rule="evenodd" clip-rule="evenodd" d="M10.4657 7.41011C10.3457 7.39839 10.4525 7.24191 10.4264 7.1512C10.394 7.03403 10.4793 7.03554 10.5622 7.03516C10.6909 7.03441 10.7637 7.08883 10.7637 7.2249C10.7633 7.3587 10.7014 7.41162 10.4657 7.41011Z" fill="#15A24A"/>
<path fill-rule="evenodd" clip-rule="evenodd" d="M15.049 8.16505C15.0226 8.24594 14.9249 8.29658 14.9083 8.39637C14.9068 8.40959 14.869 8.40695 14.8619 8.3684C14.8317 8.18773 14.8302 8.18811 14.697 8.28487C14.6864 8.2928 14.668 8.29998 14.6578 8.29658C14.6382 8.28789 14.6302 8.26823 14.6419 8.24593C14.6861 8.15976 14.7276 8.07131 14.777 7.98778C14.8102 7.9326 14.8505 7.97871 14.883 7.99459C14.9543 8.02974 15.0422 8.04977 15.049 8.16505Z" fill="#13A248"/>
<path fill-rule="evenodd" clip-rule="evenodd" d="M15.3866 8.45904C15.3172 8.48701 15.2836 8.43447 15.2391 8.41557C15.209 8.40272 15.1807 8.39063 15.1603 8.42427C15.138 8.4598 15.1603 8.48021 15.1908 8.49608C15.2142 8.5078 15.2391 8.51687 15.2565 8.53539C15.287 8.56752 15.3829 8.55882 15.344 8.62724C15.3134 8.68166 15.2621 8.61816 15.2282 8.59813C15.1697 8.56223 15.0539 8.54257 15.0664 8.48021C15.0856 8.38005 15.1426 8.27119 15.2184 8.2024C15.2791 8.14722 15.3463 8.25154 15.4145 8.27762C15.444 8.28858 15.4941 8.2984 15.4855 8.34489C15.4772 8.3929 15.4417 8.36493 15.4145 8.3585C15.3508 8.34376 15.2889 8.23566 15.2388 8.3105C15.2086 8.3551 15.3327 8.37362 15.3719 8.42276C15.378 8.42994 15.3795 8.43976 15.3866 8.45904ZM16.1996 8.99348C16.2109 9.08193 16.175 9.14203 16.0826 9.12691C15.9868 9.11103 15.914 9.05245 15.8974 8.94737C15.8959 8.93679 15.9087 8.91525 15.9193 8.91222C15.9254 8.91023 15.9318 8.90959 15.9382 8.91036C15.9445 8.91112 15.9506 8.91328 15.956 8.91666C15.9615 8.92005 15.9661 8.92459 15.9696 8.92996C15.9731 8.93533 15.9753 8.9414 15.9762 8.94775C15.9883 9.01994 16.026 9.05207 16.1019 9.05358C16.1166 8.93528 15.9034 8.88123 16.026 8.75839C16.0875 8.69678 16.1626 8.74781 16.2162 8.79732C16.2656 8.8423 16.3259 8.89181 16.2358 8.95607C16.2229 8.94926 16.2056 8.9383 16.1962 8.94586C16.1769 8.95871 16.1958 8.97723 16.1996 8.99348Z" fill="#11A147"/>
<path fill-rule="evenodd" clip-rule="evenodd" d="M13.594 7.86784C13.5492 7.84252 13.5514 7.81833 13.5586 7.79187C13.5729 7.73556 13.5439 7.70607 13.4926 7.6902C13.4413 7.67357 13.4017 7.67584 13.3877 7.74009C13.3828 7.76882 13.3677 7.78885 13.3364 7.77827C13.3002 7.76504 13.3183 7.73556 13.3251 7.71401C13.3394 7.6645 13.3522 7.61461 13.3749 7.56736C13.3952 7.52011 13.3809 7.43356 13.4552 7.43923C13.5341 7.4449 13.6193 7.4638 13.6793 7.52919C13.7061 7.55791 13.717 7.60743 13.6951 7.62897C13.6314 7.69474 13.6367 7.78772 13.594 7.86784Z" fill="#0FA046"/>
<path fill-rule="evenodd" clip-rule="evenodd" d="M11.2661 7.38663C11.1442 7.43274 11.048 7.4059 10.9541 7.40779C10.9115 7.40893 10.9077 7.3768 10.9077 7.3443C10.9107 7.30839 10.9107 7.2721 10.9107 7.2362C10.9153 7.03701 10.9858 6.98598 11.1812 7.04154C11.2031 7.04759 11.2238 7.05137 11.2253 7.07594C11.2253 7.10996 11.2008 7.116 11.1706 7.11525C11.1665 7.11449 11.1616 7.11336 11.1563 7.11411C11.0978 7.12848 10.993 7.06233 10.9911 7.15002C10.9888 7.2173 11.1031 7.16968 11.1616 7.19235C11.1699 7.19576 11.1789 7.20331 11.1918 7.21276C11.1548 7.27966 11.0933 7.24225 11.0458 7.25018C11.0175 7.25472 10.9805 7.24225 10.9764 7.28836C10.9711 7.34278 11.0088 7.34014 11.0458 7.34392C11.1088 7.35148 11.1771 7.32767 11.2661 7.38663Z" fill="#0B9F43"/>
<path fill-rule="evenodd" clip-rule="evenodd" d="M10.2646 7.41545C10.199 7.40109 10.208 7.36329 10.1967 7.33683C10.1771 7.28808 10.1383 7.28808 10.0956 7.29148C10.047 7.29601 10.0206 7.31491 10.0247 7.36896C10.0277 7.39542 10.0383 7.43813 9.98925 7.43208C9.947 7.42679 9.95907 7.38559 9.9568 7.35762C9.95303 7.31189 9.94851 7.26502 9.95303 7.21966C9.95907 7.16902 9.91078 7.09153 9.98359 7.07339C10.0587 7.05374 10.1454 7.03975 10.2235 7.07717C10.2575 7.09342 10.2842 7.13311 10.2718 7.16524C10.2431 7.24612 10.2658 7.32814 10.2646 7.41545Z" fill="#079D3F"/>
<path fill-rule="evenodd" clip-rule="evenodd" d="M9.46826 7.28691C9.48033 7.18448 9.52522 7.10132 9.63726 7.1051C9.74477 7.10851 9.80211 7.18334 9.80211 7.29106C9.80211 7.39803 9.75232 7.47173 9.63877 7.47098C9.52334 7.47022 9.48411 7.38631 9.46826 7.28691Z" fill="#15A24A"/>
<path fill-rule="evenodd" clip-rule="evenodd" d="M16.6496 9.20696C16.6391 9.30864 16.5889 9.38536 16.4731 9.39557C16.3663 9.40426 16.3098 9.34303 16.3015 9.24249C16.292 9.14082 16.3916 9.04368 16.4931 9.04444C16.5821 9.04519 16.6474 9.10983 16.6496 9.20696Z" fill="#11A147"/>
<path fill-rule="evenodd" clip-rule="evenodd" d="M14.5319 8.02414C14.6172 8.09293 14.5138 8.13829 14.51 8.19612C14.4391 8.16323 14.3505 8.17646 14.2931 8.1141C14.232 8.04758 14.2433 7.97236 14.2833 7.89903C14.3275 7.82155 14.3954 7.78829 14.4787 7.81777C14.5549 7.84499 14.6119 7.89639 14.5749 7.99315C14.5164 8.00373 14.4685 7.92663 14.3863 7.97841C14.441 8.00373 14.5066 7.96858 14.5319 8.02414Z" fill="#0C9F43"/>
<path fill-rule="evenodd" clip-rule="evenodd" d="M12.4797 7.24542C12.4299 7.30401 12.3934 7.28133 12.359 7.28208C12.3258 7.28208 12.2904 7.25449 12.2493 7.28889C12.2862 7.34936 12.3756 7.31043 12.4103 7.37053C12.4054 7.37922 12.4032 7.39094 12.3968 7.39698C12.347 7.43629 12.2674 7.34105 12.2364 7.41966C12.2081 7.48732 12.2824 7.46389 12.3145 7.47522C12.3507 7.48959 12.3956 7.4843 12.4394 7.53343C12.3379 7.57803 12.2168 7.55724 12.1749 7.50811C12.1089 7.43062 12.1553 7.29304 12.2055 7.22425C12.2647 7.14299 12.373 7.22236 12.4797 7.24542Z" fill="#19A44D"/>
<path fill-rule="evenodd" clip-rule="evenodd" d="M13.1229 7.5744C13.0373 7.56533 12.94 7.50485 12.9154 7.64621C12.9147 7.65075 12.8849 7.65717 12.8758 7.65112C12.8656 7.64545 12.86 7.62429 12.8619 7.61219C12.8841 7.52262 12.8954 7.42661 12.9351 7.34611C12.9811 7.25539 13.0592 7.33212 13.1237 7.34081C13.2006 7.35102 13.2433 7.39789 13.235 7.47915C13.2274 7.54907 13.1746 7.56797 13.1229 7.5744Z" fill="#0D9F44"/>
<path fill-rule="evenodd" clip-rule="evenodd" d="M14.1434 7.79069C14.1351 7.90446 14.0792 7.98308 13.9657 7.98648C13.8642 7.99026 13.8072 7.91882 13.8095 7.81753C13.8125 7.70792 13.8657 7.62854 13.9838 7.62514C14.0921 7.62136 14.1339 7.69431 14.1434 7.79069Z" fill="#0FA046"/>
<path fill-rule="evenodd" clip-rule="evenodd" d="M11.6003 7.3805C11.5879 7.40733 11.5777 7.44551 11.5419 7.43682C11.4796 7.42207 11.5075 7.36198 11.4925 7.32267C11.4464 7.27769 11.4585 7.33968 11.4442 7.35102C11.4389 7.37899 11.4517 7.4217 11.414 7.42737C11.3676 7.43304 11.3785 7.38844 11.3797 7.36198C11.3834 7.3068 11.3842 7.24897 11.3993 7.19605C11.4125 7.15069 11.3646 7.06716 11.4547 7.06641C11.5343 7.06603 11.517 7.14729 11.5272 7.19605C11.5377 7.25199 11.5434 7.2758 11.589 7.22024C11.6362 7.20777 11.646 7.24216 11.6569 7.27542C11.663 7.3238 11.6415 7.35744 11.6003 7.3805Z" fill="#0EA044"/>
<path fill-rule="evenodd" clip-rule="evenodd" d="M15.6182 8.76862C15.6462 8.76862 15.6745 8.80567 15.7016 8.77392C15.7224 8.7501 15.7039 8.72667 15.6854 8.70739C15.6718 8.69265 15.6575 8.67867 15.6447 8.66279C15.6062 8.6163 15.5522 8.5717 15.6054 8.50443C15.6537 8.44282 15.7099 8.45794 15.7657 8.49687C15.7759 8.51652 15.7725 8.53542 15.762 8.55318C15.7209 8.61782 15.7974 8.65712 15.7959 8.71231C15.8076 8.76409 15.8152 8.81625 15.7582 8.84611C15.6873 8.8839 15.6326 8.84913 15.5805 8.80378C15.5749 8.77392 15.5858 8.75918 15.6182 8.76862Z" fill="#10A146"/>
<path fill-rule="evenodd" clip-rule="evenodd" d="M14.5318 8.02414C14.5028 8.04455 14.4443 7.9784 14.4462 8.02829C14.45 8.11674 14.4059 8.1088 14.3647 8.08272C14.3093 8.04833 14.3063 7.98936 14.3413 7.93494C14.3753 7.88164 14.4232 7.85065 14.4813 7.89412C14.5168 7.92019 14.5435 7.9595 14.5741 7.99314L14.5318 8.02414Z" fill="#ECF7F0"/>
<path fill-rule="evenodd" clip-rule="evenodd" d="M11.6253 7.29091C11.6142 7.26757 11.6021 7.24474 11.5891 7.2225C11.6023 7.18886 11.6143 7.15484 11.6302 7.12233C11.6445 7.09172 11.6694 7.07471 11.7045 7.08605C11.7437 7.09928 11.7407 7.12952 11.7384 7.16127C11.7301 7.25387 11.7226 7.34609 11.7154 7.43869C11.6603 7.47384 11.6464 7.44172 11.6373 7.39409C11.6305 7.3597 11.6483 7.32266 11.6253 7.29091Z" fill="#17A34C"/>
<path fill-rule="evenodd" clip-rule="evenodd" d="M15.797 8.71185C15.7631 8.67708 15.7269 8.6442 15.6952 8.60716C15.6582 8.56331 15.6726 8.53648 15.7276 8.5293C15.8072 8.54706 15.8559 8.58561 15.8325 8.67708C15.8216 8.68842 15.8095 8.70052 15.797 8.71185Z" fill="#D7EFE0"/>
<path fill-rule="evenodd" clip-rule="evenodd" d="M15.8325 8.67725C15.7959 8.62963 15.7861 8.56159 15.7276 8.52947L15.7668 8.49658C15.8302 8.54156 15.946 8.56726 15.8325 8.67725Z" fill="#2BAB5B"/>
<path fill-rule="evenodd" clip-rule="evenodd" d="M16.1995 8.99338C16.1946 8.99035 16.1882 8.98884 16.186 8.98468C16.1558 8.92874 16.0558 8.87847 16.0898 8.82896C16.1324 8.76924 16.1769 8.83992 16.2003 8.89095C16.2109 8.91249 16.2237 8.93366 16.2358 8.95596C16.2233 8.96843 16.2109 8.9809 16.1995 8.99338Z" fill="#E6F5EC"/>
<path fill-rule="evenodd" clip-rule="evenodd" d="M15.6182 8.76872C15.6062 8.78044 15.5945 8.79253 15.5805 8.80425C15.5647 8.79291 15.5428 8.78498 15.5326 8.76872C15.5134 8.73206 15.4583 8.6833 15.522 8.65458C15.5756 8.62887 15.5756 8.69729 15.593 8.73055C15.6001 8.74453 15.6092 8.75625 15.6182 8.76872Z" fill="#29AA59"/>
<path fill-rule="evenodd" clip-rule="evenodd" d="M11.6253 7.29102C11.6804 7.31256 11.6513 7.35867 11.6521 7.39307C11.6551 7.44031 11.6717 7.45619 11.7158 7.43956C11.6238 7.52876 11.6355 7.4097 11.6 7.38324C11.6095 7.35187 11.6166 7.32125 11.6253 7.29102Z" fill="#DDF1E4"/>
<path fill-rule="evenodd" clip-rule="evenodd" d="M11.4424 7.3512V7.22949C11.4937 7.24612 11.4952 7.28279 11.49 7.32285C11.4744 7.3323 11.458 7.34137 11.4424 7.3512Z" fill="#6FC690"/>
<path fill-rule="evenodd" clip-rule="evenodd" d="M10.5023 7.22678C10.5076 7.17159 10.4812 7.09978 10.5751 7.10583C10.6438 7.10998 10.6936 7.13758 10.6973 7.21619C10.7011 7.30086 10.6517 7.33525 10.5736 7.34092C10.4744 7.34886 10.5148 7.27062 10.5023 7.22678Z" fill="#F5FBF7"/>
<path fill-rule="evenodd" clip-rule="evenodd" d="M14.8525 8.05824C14.8918 8.07979 14.9518 8.08395 14.9646 8.14215C14.971 8.17239 14.945 8.19242 14.9182 8.18373C14.8684 8.16861 14.8024 8.16786 14.7956 8.09755C14.7937 8.07714 14.8156 8.05144 14.8525 8.05824Z" fill="#EFF8F3"/>
<path fill-rule="evenodd" clip-rule="evenodd" d="M13.6291 7.59297C13.6189 7.63228 13.5914 7.64589 13.5597 7.63417C13.517 7.61867 13.4484 7.63568 13.4476 7.56084C13.4461 7.52191 13.4725 7.5102 13.508 7.52191C13.5548 7.53703 13.6114 7.53514 13.6291 7.59297Z" fill="#DEF2E5"/>
<path fill-rule="evenodd" clip-rule="evenodd" d="M10.105 7.12793C10.142 7.13247 10.2005 7.11281 10.1967 7.17593C10.1929 7.23111 10.1371 7.22242 10.0971 7.22318C10.065 7.22431 10.019 7.24094 10.016 7.18311C10.0137 7.11432 10.0673 7.13587 10.105 7.12793Z" fill="#F3FAF5"/>
<path fill-rule="evenodd" clip-rule="evenodd" d="M9.62788 7.18066C9.69616 7.1852 9.73011 7.22602 9.73275 7.29027C9.73652 7.34773 9.70823 7.39686 9.64938 7.40215C9.58148 7.40858 9.55092 7.3568 9.54715 7.29368C9.54338 7.23547 9.56601 7.19314 9.62788 7.18066Z" fill="#F3FAF6"/>
<path fill-rule="evenodd" clip-rule="evenodd" d="M16.5745 9.2205C16.5647 9.28325 16.527 9.32747 16.4542 9.32747C16.3957 9.32671 16.3738 9.284 16.3799 9.23222C16.3855 9.16192 16.4274 9.11656 16.4987 9.1177C16.5549 9.11921 16.5768 9.15965 16.5745 9.2205Z" fill="#F9FCFA"/>
<path fill-rule="evenodd" clip-rule="evenodd" d="M13.0343 7.38845C13.0724 7.41188 13.1489 7.38769 13.1599 7.46328C13.1633 7.49201 13.1316 7.50675 13.1063 7.50108C13.0569 7.49012 12.9879 7.50788 12.9818 7.42813C12.9807 7.40356 12.9916 7.37711 13.0343 7.38845Z" fill="#E7F5EC"/>
<path fill-rule="evenodd" clip-rule="evenodd" d="M14.0679 7.79986C14.0607 7.86525 14.0287 7.91098 13.9626 7.91098C13.8978 7.91174 13.8747 7.86638 13.8778 7.80667C13.883 7.7409 13.9204 7.69706 13.9841 7.69441C14.0475 7.69214 14.0679 7.74279 14.0679 7.79986Z" fill="#F5FBF7"/>
</svg>
