<svg width="18" height="20" viewBox="0 0 18 20" fill="none" xmlns="http://www.w3.org/2000/svg">
<path d="M9 0.61084C13.9707 0.61084 18 4.79893 18 9.96552C18 15.1321 13.9707 19.3202 9 19.3202C4.0293 19.3202 0 15.1321 0 9.96552C0 4.79893 4.0293 0.61084 9 0.61084ZM9 2.48178C7.09044 2.48178 5.25909 3.27024 3.90883 4.67371C2.55857 6.07719 1.8 7.98071 1.8 9.96552C1.8 11.9503 2.55857 13.8539 3.90883 15.2573C5.25909 16.6608 7.09044 17.4493 9 17.4493C10.9096 17.4493 12.7409 16.6608 14.0912 15.2573C15.4414 13.8539 16.2 11.9503 16.2 9.96552C16.2 7.98071 15.4414 6.07719 14.0912 4.67371C12.7409 3.27024 10.9096 2.48178 9 2.48178ZM8.991 8.09458C9.4932 8.09458 9.9 8.51742 9.9 9.03941V13.8327C10.0716 13.9357 10.2057 14.0946 10.2815 14.2849C10.3573 14.4751 10.3706 14.6861 10.3193 14.885C10.268 15.0839 10.155 15.2596 9.99786 15.385C9.84069 15.5104 9.64811 15.5783 9.45 15.5783H9.009C8.88963 15.5783 8.77143 15.5539 8.66114 15.5064C8.55086 15.4589 8.45065 15.3893 8.36624 15.3016C8.28183 15.2139 8.21487 15.1097 8.16919 14.9951C8.12351 14.8804 8.1 14.7576 8.1 14.6335V9.96552C7.8613 9.96552 7.63239 9.86696 7.4636 9.69153C7.29482 9.51609 7.2 9.27815 7.2 9.03005C7.2 8.78195 7.29482 8.54401 7.4636 8.36858C7.63239 8.19314 7.8613 8.09458 8.1 8.09458H8.991ZM9 5.28818C9.23869 5.28818 9.46761 5.38674 9.6364 5.56217C9.80518 5.73761 9.9 5.97555 9.9 6.22365C9.9 6.47175 9.80518 6.70969 9.6364 6.88512C9.46761 7.06056 9.23869 7.15912 9 7.15912C8.7613 7.15912 8.53239 7.06056 8.3636 6.88512C8.19482 6.70969 8.1 6.47175 8.1 6.22365C8.1 5.97555 8.19482 5.73761 8.3636 5.56217C8.53239 5.38674 8.7613 5.28818 9 5.28818Z" fill="#979797"/>
</svg>
