<svg width="17" height="19" viewBox="0 0 17 19" fill="none" xmlns="http://www.w3.org/2000/svg">
<path d="M10 14L11.32 15.76C10.32 17.68 8.31 19 6 19C2.69 19 0 16.31 0 13C0 10.57 1.46 8.5 3.55 7.55L3.76 9.72C2.71 10.44 2 11.63 2 13C2 15.21 3.79 17 6 17C7.86 17 9.41 15.72 9.86 14H10ZM15.55 14.11L14.3 14.73L11.5 11H6.91L6.71 9H10V7H6.5L6.2 4C7.21 3.88 8 3.04 8 2C8 1.46957 7.78929 0.960859 7.41421 0.585786C7.03914 0.210714 6.53043 0 6 0C5.46957 0 4.96086 0.210714 4.58579 0.585786C4.21071 0.960859 4 1.46957 4 2V2.1L5.1 13H10.5L13.7 17.27L16.45 15.9L15.55 14.11Z" fill="#2B2B2B" fill-opacity="0.5"/>
</svg>
