<svg width="6" height="24" viewBox="0 0 6 24" fill="none" xmlns="http://www.w3.org/2000/svg">
<path d="M0 21.0019C-1.17338e-08 20.6082 0.0775486 20.2183 0.228218 19.8545C0.378888 19.4908 0.59973 19.1603 0.878131 18.8819C1.15653 18.6035 1.48704 18.3826 1.85079 18.232C2.21454 18.0813 2.60441 18.0037 2.99813 18.0037C3.39185 18.0037 3.78171 18.0813 4.14546 18.232C4.50921 18.3826 4.83972 18.6035 5.11812 18.8819C5.39652 19.1603 5.61736 19.4908 5.76803 19.8545C5.9187 20.2183 5.99625 20.6082 5.99625 21.0019C5.99625 21.797 5.68038 22.5596 5.11812 23.1219C4.55586 23.6841 3.79328 24 2.99813 24C2.20297 24 1.44039 23.6841 0.878131 23.1219C0.315874 22.5596 0 21.797 0 21.0019ZM0.293817 2.99813C0.253891 2.61989 0.293933 2.23748 0.411344 1.87571C0.528755 1.51395 0.720912 1.18091 0.975347 0.8982C1.22978 0.615495 1.54081 0.389438 1.88825 0.2347C2.2357 0.0799627 2.61179 0 2.99213 0C3.37247 0 3.74856 0.0799627 4.09601 0.2347C4.44345 0.389438 4.75448 0.615495 5.00891 0.8982C5.26335 1.18091 5.45551 1.51395 5.57292 1.87571C5.69033 2.23748 5.73037 2.61989 5.69044 2.99813L4.6411 13.5126C4.59847 13.9202 4.40635 14.2976 4.10184 14.5719C3.79732 14.8462 3.40199 14.9981 2.99213 14.9981C2.58227 14.9981 2.18694 14.8462 1.88242 14.5719C1.57791 14.2976 1.38579 13.9202 1.34316 13.5126L0.293817 2.99813Z" fill="#2B2B2B"/>
</svg>
