<svg width="24" height="24" viewBox="0 0 24 24" fill="none" xmlns="http://www.w3.org/2000/svg">
<g clip-path="url(#clip0_455_4592)">
<path d="M7.10015 16.2934C7.10294 14.8986 7.56562 13.5436 8.41653 12.4384C9.26744 11.3332 10.4591 10.5394 11.8068 10.1801L8.66682 2.00006C8.61884 1.87357 8.53352 1.76467 8.42218 1.68783C8.31084 1.61098 8.17876 1.56982 8.04348 1.56982C7.9082 1.56982 7.77612 1.61098 7.66478 1.68783C7.55345 1.76467 7.46813 1.87357 7.42015 2.00006L1.38015 17.7067C1.34124 17.8076 1.32743 17.9164 1.33991 18.0237C1.3524 18.1311 1.3908 18.2338 1.45181 18.323C1.51283 18.4123 1.59462 18.4853 1.69014 18.5359C1.78567 18.5865 1.89206 18.6131 2.00015 18.6134H7.54682C7.2528 17.8752 7.10124 17.088 7.10015 16.2934Z" fill="#2B2B2B"/>
<path d="M21.3332 6.6665H13.3332C13.1564 6.6665 12.9868 6.73674 12.8618 6.86177C12.7367 6.98679 12.6665 7.15636 12.6665 7.33317V9.99984C13.533 9.88805 14.4133 9.9581 15.2513 10.2055C16.0892 10.453 16.8663 10.8723 17.5331 11.4369C18.1999 12.0014 18.7417 12.6988 19.124 13.4844C19.5062 14.2701 19.7205 15.1268 19.7532 15.9998H21.3332C21.51 15.9998 21.6796 15.9296 21.8046 15.8046C21.9296 15.6796 21.9998 15.51 21.9998 15.3332V7.33317C21.9998 7.15636 21.9296 6.98679 21.8046 6.86177C21.6796 6.73674 21.51 6.6665 21.3332 6.6665Z" fill="#2B2B2B"/>
<path d="M13.4331 21.2935C16.1945 21.2935 18.4331 19.0549 18.4331 16.2935C18.4331 13.532 16.1945 11.2935 13.4331 11.2935C10.6717 11.2935 8.43311 13.532 8.43311 16.2935C8.43311 19.0549 10.6717 21.2935 13.4331 21.2935Z" fill="#2B2B2B"/>
</g>
<defs>
<clipPath id="clip0_455_4592">
<rect width="24" height="24" fill="white"/>
</clipPath>
</defs>
</svg>
