<svg width="18" height="19" viewBox="0 0 18 19" fill="none" xmlns="http://www.w3.org/2000/svg">
<path d="M8.955 15.0808C9.27 15.0808 9.5364 14.9676 9.7542 14.7412C9.972 14.5148 10.0806 14.2382 10.08 13.9114C10.08 13.584 9.9714 13.3071 9.7542 13.0807C9.537 12.8544 9.2706 12.7415 8.955 12.7421C8.64 12.7421 8.3739 12.8553 8.1567 13.0817C7.9395 13.3081 7.8306 13.5846 7.83 13.9114C7.83 14.2388 7.9389 14.5157 8.1567 14.7421C8.3745 14.9685 8.6406 15.0814 8.955 15.0808ZM8.145 11.4792H9.81C9.81 10.9647 9.8664 10.5593 9.9792 10.2631C10.092 9.96688 10.4106 9.56151 10.935 9.047C11.325 8.64163 11.6325 8.25559 11.8575 7.88889C12.0825 7.52219 12.195 7.08189 12.195 6.56801C12.195 5.69491 11.8875 5.02449 11.2725 4.55675C10.6575 4.08902 9.93 3.85515 9.09 3.85515C8.235 3.85515 7.5414 4.08902 7.0092 4.55675C6.477 5.02449 6.1056 5.58577 5.895 6.2406L7.38 6.84865C7.455 6.56801 7.6239 6.26398 7.8867 5.93657C8.1495 5.60916 8.5506 5.44545 9.09 5.44545C9.57 5.44545 9.93 5.58203 10.17 5.85518C10.41 6.12834 10.53 6.42831 10.53 6.7551C10.53 7.06693 10.44 7.35942 10.26 7.63257C10.08 7.90573 9.855 8.15893 9.585 8.39217C8.925 9.00023 8.52 9.46016 8.37 9.77199C8.22 10.0838 8.145 10.6529 8.145 11.4792ZM9 18.8226C7.755 18.8226 6.585 18.5772 5.49 18.0864C4.395 17.5956 3.4425 16.9289 2.6325 16.0864C1.8225 15.2445 1.1814 14.2544 0.7092 13.1163C0.237 11.9781 0.0006 10.762 0 9.46796C0 8.1739 0.2364 6.95779 0.7092 5.81964C1.182 4.68148 1.8231 3.69145 2.6325 2.84952C3.4425 2.0076 4.395 1.34124 5.49 0.85043C6.585 0.359621 7.755 0.113905 9 0.113281C10.245 0.113281 11.415 0.358998 12.51 0.85043C13.605 1.34186 14.5575 2.00823 15.3675 2.84952C16.1775 3.69145 16.8189 4.68148 17.2917 5.81964C17.7645 6.95779 18.0006 8.1739 18 9.46796C18 10.762 17.7636 11.9781 17.2908 13.1163C16.818 14.2544 16.1769 15.2445 15.3675 16.0864C14.5575 16.9283 13.605 17.595 12.51 18.0864C11.415 18.5779 10.245 18.8233 9 18.8226ZM9 16.9517C11.01 16.9517 12.7125 16.2267 14.1075 14.7767C15.5025 13.3268 16.2 11.5572 16.2 9.46796C16.2 7.37875 15.5025 5.60915 14.1075 4.15918C12.7125 2.7092 11.01 1.98422 9 1.98422C6.99 1.98422 5.2875 2.7092 3.8925 4.15918C2.4975 5.60915 1.8 7.37875 1.8 9.46796C1.8 11.5572 2.4975 13.3268 3.8925 14.7767C5.2875 16.2267 6.99 16.9517 9 16.9517Z" fill="#979797"/>
</svg>
