<svg width="23" height="23" viewBox="0 0 23 23" fill="none" xmlns="http://www.w3.org/2000/svg">
<path d="M15.3809 16.5859L11.9947 13.1997C11.8709 13.0759 11.7247 13.0534 11.6459 13.0534C11.5672 13.0534 11.4209 13.0759 11.2972 13.1997L7.89969 16.5972C7.51719 16.9797 6.92094 17.5984 4.92969 17.5984L9.10344 21.7609C9.73625 22.393 10.5941 22.748 11.4884 22.748C12.3828 22.748 13.2406 22.393 13.8734 21.7609L18.0584 17.5872C17.0347 17.5872 16.1797 17.3847 15.3809 16.5859ZM7.89969 6.40469L11.2972 9.80219C11.3872 9.89219 11.5222 9.94844 11.6459 9.94844C11.7697 9.94844 11.9047 9.89219 11.9947 9.80219L15.3584 6.43844C16.1572 5.60594 17.0684 5.41469 18.0922 5.41469L13.9072 1.24094C13.2744 0.60891 12.4166 0.253906 11.5222 0.253906C10.6278 0.253906 9.77 0.60891 9.13719 1.24094L4.96344 5.40344C6.94344 5.40344 7.55094 6.05594 7.89969 6.40469Z" fill="#4BBEAE"/>
<path d="M21.7487 9.08063L19.2175 6.53812H17.8C17.1925 6.53812 16.585 6.78562 16.1687 7.22437L12.7937 10.5994C12.4787 10.9144 12.0625 11.0719 11.6462 11.0719C11.2176 11.0658 10.8073 10.8969 10.4987 10.5994L7.10121 7.19062C6.67371 6.76312 6.08871 6.51562 5.46996 6.51562H3.81621L1.23996 9.10312C0.607933 9.73594 0.25293 10.5937 0.25293 11.4881C0.25293 12.3825 0.607933 13.2403 1.23996 13.8731L3.81621 16.4606H5.48121C6.08871 16.4606 6.67371 16.2131 7.11246 15.7856L10.51 12.3881C10.825 12.0731 11.2412 11.9156 11.6575 11.9156C12.0737 11.9156 12.49 12.0731 12.805 12.3881L16.1912 15.7744C16.6187 16.2019 17.2037 16.4494 17.8225 16.4494H19.24L21.7712 13.9069C22.4059 13.2627 22.7598 12.3934 22.7556 11.4891C22.7514 10.5848 22.3894 9.71889 21.7487 9.08063Z" fill="#4BBEAE"/>
</svg>
