<svg width="36" height="23" viewBox="0 0 36 23" fill="none" xmlns="http://www.w3.org/2000/svg">
<path d="M13.1201 2.37891H22.8443V19.8615H13.1201V2.37891Z" fill="#FF5F00"/>
<path d="M13.7375 11.1197C13.7375 7.5676 15.4045 4.41696 17.9667 2.37831C16.0837 0.895719 13.7067 0 11.1136 0C4.97011 0 0 4.97288 0 11.1197C0 17.2663 4.97011 22.2393 11.1135 22.2393C13.7066 22.2393 16.0836 21.3436 17.9667 19.8609C15.4045 17.8532 13.7375 14.6717 13.7375 11.1197Z" fill="#EB001B"/>
<path d="M35.9647 11.1197C35.9647 17.2663 30.9946 22.2393 24.8513 22.2393C22.2581 22.2393 19.8812 21.3436 17.998 19.8609C20.5912 17.8224 22.2273 14.6717 22.2273 11.1197C22.2273 7.5676 20.5602 4.41696 17.998 2.37831C19.881 0.895719 22.2581 0 24.8513 0C30.9946 0 35.9647 5.00384 35.9647 11.1197Z" fill="#F79E1B"/>
</svg>
