<svg width="42" height="14" viewBox="0 0 42 14" fill="none" xmlns="http://www.w3.org/2000/svg">
<path d="M15.9464 0.243333L10.4475 13.5697H6.86011L4.15406 2.934C3.99 2.2805 3.84743 2.04 3.34819 1.76367C2.53214 1.31333 1.18453 0.892167 0 0.630167L0.0798984 0.243333H5.85556C6.59056 0.243333 7.25238 0.7405 7.42071 1.60133L8.85052 9.3135L12.3805 0.243333H15.9464ZM20.7961 0.243333L17.9901 13.5697H14.596L17.4023 0.243333H20.7961ZM30.0026 9.21867C30.0167 5.70217 25.2162 5.507 25.2476 3.93583C25.2591 3.45817 25.707 2.94967 26.6874 2.81967C27.173 2.75583 28.5147 2.705 30.0344 3.41633L30.629 0.588667C29.8125 0.288667 28.7616 0 27.4545 0C24.0995 0 21.7394 1.81033 21.7206 4.40467C21.6986 6.32367 23.4063 7.39317 24.6906 8.03233C26.0134 8.685 26.457 9.1045 26.451 9.68783C26.4415 10.582 25.3944 10.9778 24.421 10.9925C22.7141 11.02 21.7247 10.5238 20.9354 10.1503L20.3193 13.0717C21.1134 13.4413 22.5768 13.7625 24.0926 13.7788C27.6593 13.7788 29.9921 11.9892 30.0026 9.21867ZM38.862 13.5698H42L39.2585 0.243333H36.3633C35.7103 0.243333 35.1615 0.628333 34.9181 1.22017L29.8256 13.5697H33.3895L34.0965 11.579H38.4507L38.862 13.5698ZM35.0738 8.84833L36.8607 3.84383L37.8873 8.84833H35.0738Z" fill="#1A1F71"/>
</svg>
