<svg width="21" height="21" viewBox="0 0 21 21" fill="none" xmlns="http://www.w3.org/2000/svg">
<path d="M7.9966 2.18872C8.5606 1.6898 8.8426 1.44034 9.1366 1.29379C9.47333 1.12642 9.84185 1.03955 10.2151 1.03955C10.5884 1.03955 10.9569 1.12642 11.2936 1.29379C11.5886 1.43931 11.8706 1.68876 12.4336 2.18872C12.6586 2.38829 12.7706 2.48703 12.8906 2.57018C13.1654 2.76162 13.474 2.89445 13.7986 2.961C13.9396 2.9901 14.0866 3.00258 14.3806 3.02752C15.1196 3.08781 15.4886 3.11899 15.7966 3.23229C16.1484 3.36133 16.4679 3.57057 16.7318 3.84466C16.9957 4.11876 17.1972 4.45077 17.3216 4.81634C17.4306 5.13752 17.4596 5.52106 17.5186 6.28815C17.5416 6.59373 17.5536 6.74653 17.5816 6.89412C17.6456 7.23089 17.7736 7.55207 17.9576 7.83687C18.0376 7.9616 18.1336 8.07801 18.3246 8.31188C18.8046 8.8981 19.0456 9.19122 19.1866 9.4968C19.3476 9.84681 19.4312 10.2298 19.4312 10.6178C19.4312 11.0058 19.3476 11.3888 19.1866 11.7388C19.0466 12.0444 18.8056 12.3375 18.3246 12.9237C18.1938 13.0748 18.0713 13.2334 17.9576 13.3987C17.7735 13.684 17.6457 14.0045 17.5816 14.3415C17.5536 14.4891 17.5416 14.6419 17.5186 14.9475C17.4596 15.7145 17.4306 16.0991 17.3216 16.4193C17.1972 16.7848 16.9957 17.1168 16.7318 17.3909C16.4679 17.665 16.1484 17.8743 15.7966 18.0033C15.4886 18.1177 15.1196 18.1478 14.3806 18.2081C14.0866 18.233 13.9406 18.2455 13.7986 18.2746C13.474 18.3412 13.1654 18.474 12.8906 18.6654C12.7319 18.7837 12.5797 18.911 12.4346 19.0469C11.8706 19.5458 11.5886 19.7953 11.2946 19.9418C10.9579 20.1092 10.5893 20.1961 10.2161 20.1961C9.84285 20.1961 9.47433 20.1092 9.1376 19.9418C8.8426 19.7963 8.5606 19.5468 7.9976 19.0469C7.8522 18.911 7.69963 18.7837 7.5406 18.6654C7.26579 18.474 6.95716 18.3412 6.6326 18.2746C6.43993 18.2413 6.24563 18.219 6.0506 18.2081C5.3116 18.1478 4.9426 18.1166 4.6346 18.0033C4.2828 17.8743 3.96325 17.665 3.69937 17.3909C3.43549 17.1168 3.23398 16.7848 3.1096 16.4193C3.0006 16.0991 2.9716 15.7145 2.9126 14.9475C2.90261 14.7444 2.88158 14.5421 2.8496 14.3415C2.78545 14.0045 2.65765 13.6841 2.4736 13.3987C2.3936 13.274 2.2976 13.1576 2.1066 12.9237C1.6266 12.3375 1.3856 12.0444 1.2446 11.7388C1.08358 11.3888 1 11.0058 1 10.6178C1 10.2298 1.08358 9.84681 1.2446 9.4968C1.3856 9.19122 1.6256 8.8981 2.1066 8.31188C2.2976 8.07801 2.3936 7.9616 2.4736 7.83687C2.65765 7.55154 2.78545 7.23111 2.8496 6.89412C2.8776 6.74653 2.8896 6.59373 2.9126 6.28815C2.9716 5.52106 3.0006 5.13752 3.1096 4.81634C3.23408 4.45066 3.43575 4.11859 3.69981 3.84448C3.96387 3.57038 4.28362 3.36119 4.6356 3.23229C4.9436 3.11899 5.3126 3.08781 6.0516 3.02752C6.3456 3.00258 6.4916 2.9901 6.6336 2.961C6.95816 2.89445 7.26679 2.76162 7.5416 2.57018C7.6616 2.48703 7.7726 2.38829 7.9966 2.18872Z" stroke="#979797" stroke-width="1.5"/>
<path d="M7.21558 13.7365L13.2156 7.5" stroke="#979797" stroke-width="1.5" stroke-linecap="round"/>
<path d="M13.7156 13.2169C13.7156 13.4926 13.6102 13.757 13.4227 13.9519C13.2351 14.1468 12.9808 14.2563 12.7156 14.2563C12.4504 14.2563 12.196 14.1468 12.0085 13.9519C11.8209 13.757 11.7156 13.4926 11.7156 13.2169C11.7156 12.9413 11.8209 12.6769 12.0085 12.4819C12.196 12.287 12.4504 12.1775 12.7156 12.1775C12.9808 12.1775 13.2351 12.287 13.4227 12.4819C13.6102 12.6769 13.7156 12.9413 13.7156 13.2169ZM8.71558 8.01988C8.71558 8.29555 8.61022 8.55992 8.42268 8.75485C8.23515 8.94978 7.98079 9.05929 7.71558 9.05929C7.45036 9.05929 7.19601 8.94978 7.00847 8.75485C6.82093 8.55992 6.71558 8.29555 6.71558 8.01988C6.71558 7.74421 6.82093 7.47983 7.00847 7.2849C7.19601 7.08998 7.45036 6.98047 7.71558 6.98047C7.98079 6.98047 8.23515 7.08998 8.42268 7.2849C8.61022 7.47983 8.71558 7.74421 8.71558 8.01988Z" fill="#979797"/>
</svg>
