<svg width="20" height="22" viewBox="0 0 20 22" fill="none" xmlns="http://www.w3.org/2000/svg">
<path d="M10 19.2465C12.1217 19.2465 14.1566 18.3704 15.6569 16.811C17.1571 15.2516 18 13.1365 18 10.9312C18 8.72585 17.1571 6.61083 15.6569 5.05141C14.1566 3.492 12.1217 2.61593 10 2.61593C7.87827 2.61593 5.84344 3.492 4.34315 5.05141C2.84285 6.61083 2 8.72585 2 10.9312C2 13.1365 2.84285 15.2516 4.34315 16.811C5.84344 18.3704 7.87827 19.2465 10 19.2465ZM10 0.537109C11.3132 0.537109 12.6136 0.80596 13.8268 1.32831C15.0401 1.85066 16.1425 2.61629 17.0711 3.58147C17.9997 4.54665 18.7362 5.69248 19.2388 6.95355C19.7413 8.21462 20 9.56623 20 10.9312C20 13.6879 18.9464 16.3317 17.0711 18.2809C15.1957 20.2302 12.6522 21.3253 10 21.3253C4.47 21.3253 0 16.6479 0 10.9312C0 8.17451 1.05357 5.53074 2.92893 3.58147C4.8043 1.6322 7.34784 0.537109 10 0.537109ZM10.5 5.73415V11.1911L15 13.9663L14.25 15.2447L9 11.9706V5.73415H10.5Z" fill="#979797"/>
</svg>
