<svg width="14" height="14" viewBox="0 0 14 14" fill="none" xmlns="http://www.w3.org/2000/svg">
<path fill-rule="evenodd" clip-rule="evenodd" d="M3.88889 3.11111C3.88889 2.28599 4.21667 1.49467 4.80011 0.911223C5.38356 0.327777 6.17488 0 7 0C7.82512 0 8.61644 0.327777 9.19989 0.911223C9.78333 1.49467 10.1111 2.28599 10.1111 3.11111C10.1111 3.93623 9.78333 4.72755 9.19989 5.311C8.61644 5.89445 7.82512 6.22222 7 6.22222C6.17488 6.22222 5.38356 5.89445 4.80011 5.311C4.21667 4.72755 3.88889 3.93623 3.88889 3.11111ZM3.88889 7.77778C2.85749 7.77778 1.86834 8.1875 1.13903 8.91681C0.409721 9.64612 0 10.6353 0 11.6667C0 12.2855 0.245833 12.879 0.683418 13.3166C1.121 13.7542 1.71449 14 2.33333 14H11.6667C12.2855 14 12.879 13.7542 13.3166 13.3166C13.7542 12.879 14 12.2855 14 11.6667C14 10.6353 13.5903 9.64612 12.861 8.91681C12.1317 8.1875 11.1425 7.77778 10.1111 7.77778H3.88889Z" fill="#2B2B2B"/>
</svg>
