<svg width="18" height="16" viewBox="0 0 18 16" fill="none" xmlns="http://www.w3.org/2000/svg">
<path fill-rule="evenodd" clip-rule="evenodd" d="M7.2787 0.541992H9.88409C11.4229 0.541992 12.6419 0.541992 13.5954 0.675133C14.5767 0.812625 15.3712 1.10153 15.9982 1.75244C16.7718 2.55738 17.0188 3.63469 17.1084 5.03311C17.5914 5.25327 17.9565 5.72057 17.9958 6.31231C18 6.36539 18 6.42195 18 6.47416V9.83837C18 9.89058 18 9.94714 17.9967 9.99936C17.9565 10.5911 17.5914 11.0593 17.1084 11.2803C17.0188 12.6778 16.7718 13.7552 15.9982 14.5601C15.3712 15.211 14.5767 15.4999 13.5954 15.6374C12.641 15.7705 11.4229 15.7705 9.88409 15.7705H7.2787C5.73991 15.7705 4.52093 15.7705 3.56735 15.6374C2.58614 15.4999 1.79163 15.211 1.16456 14.5601C0.538326 13.9083 0.260372 13.0825 0.128093 12.0626C0 11.0706 0 9.80443 0 8.205V8.10754C0 6.5081 0 5.24109 0.128093 4.24993C0.260372 3.23005 0.538326 2.40423 1.16456 1.75244C1.79163 1.10153 2.58614 0.812625 3.56735 0.675133C4.52177 0.541992 5.73991 0.541992 7.2787 0.541992ZM15.8383 11.4195H14.2158C12.42 11.4195 10.8829 10.0028 10.8829 8.15627C10.8829 6.3097 12.42 4.89301 14.215 4.89301H15.8375C15.742 3.72606 15.5269 3.10909 15.1091 2.67573C14.755 2.30763 14.2694 2.0866 13.4272 1.96912C12.5673 1.84904 11.4329 1.8473 9.83637 1.8473H7.32474C5.72819 1.8473 4.5946 1.84904 3.73312 1.96912C2.89172 2.0866 2.40614 2.30763 2.052 2.67573C1.69786 3.04383 1.48521 3.54854 1.37219 4.42397C1.25665 5.31854 1.25498 6.49679 1.25498 8.15627C1.25498 9.81574 1.25665 10.9949 1.37219 11.8894C1.48521 12.764 1.69786 13.2687 2.052 13.6368C2.40614 14.0049 2.89172 14.2259 3.73395 14.3434C4.5946 14.4635 5.72819 14.4652 7.32474 14.4652H9.83637C11.4329 14.4652 12.5673 14.4635 13.428 14.3434C14.2694 14.2259 14.755 14.0049 15.1091 13.6368C15.5269 13.2034 15.7429 12.5873 15.8383 11.4195ZM3.34884 4.67546C3.34884 4.50236 3.41499 4.33636 3.53275 4.21396C3.6505 4.09156 3.81021 4.0228 3.97674 4.0228H7.32558C7.49211 4.0228 7.65182 4.09156 7.76958 4.21396C7.88733 4.33636 7.95349 4.50236 7.95349 4.67546C7.95349 4.84855 7.88733 5.01455 7.76958 5.13695C7.65182 5.25935 7.49211 5.32811 7.32558 5.32811H3.97674C3.81021 5.32811 3.6505 5.25935 3.53275 5.13695C3.41499 5.01455 3.34884 4.84855 3.34884 4.67546ZM16.4713 6.19831H14.2158C13.0236 6.19831 12.1387 7.11985 12.1387 8.15627C12.1387 9.19268 13.0236 10.1142 14.215 10.1142H16.4905C16.663 10.1029 16.7375 9.98195 16.7433 9.90885V6.40368C16.7375 6.33058 16.663 6.20962 16.4905 6.19918L16.4713 6.19831Z" fill="#979797"/>
</svg>
